<?xml version="1.0" encoding="UTF-8" standalone="no"?>
<!-- Created with Inkscape (http://www.inkscape.org/) -->

<svg
   width="210mm"
   height="297mm"
   viewBox="0 0 210 297"
   version="1.1"
   id="svg5"
   inkscape:version="1.1.2 (b8e25be8, 2022-02-05)"
   sodipodi:docname="four leaf clover.svg"
   xmlns:inkscape="http://www.inkscape.org/namespaces/inkscape"
   xmlns:sodipodi="http://sodipodi.sourceforge.net/DTD/sodipodi-0.dtd"
   xmlns="http://www.w3.org/2000/svg"
   xmlns:svg="http://www.w3.org/2000/svg">
  <sodipodi:namedview
     id="namedview7"
     pagecolor="#ffffff"
     bordercolor="#666666"
     borderopacity="1.0"
     inkscape:pageshadow="2"
     inkscape:pageopacity="0.0"
     inkscape:pagecheckerboard="0"
     inkscape:document-units="mm"
     showgrid="false"
     inkscape:zoom="0.52855995"
     inkscape:cx="199.59893"
     inkscape:cy="399.19786"
     inkscape:window-width="1275"
     inkscape:window-height="628"
     inkscape:window-x="0"
     inkscape:window-y="37"
     inkscape:window-maximized="0"
     inkscape:current-layer="layer1" />
  <defs
     id="defs2" />
  <g
     inkscape:label="Layer 1"
     inkscape:groupmode="layer"
     id="layer1">
    <path
       style="fill:#1a5c1a;fill-opacity:1;stroke-width:0.342692"
       d="m 62.447899,174.46068 c 8.001281,1.56324 16.087902,-1.87827 22.291675,-6.76337 7.10409,-5.46015 12.261675,-13.08752 15.719836,-21.28422 2.93004,-6.41816 5.40255,-13.03054 8.17014,-19.51802 2.60071,0.19807 0.68466,3.63553 0.56636,5.17769 -2.03673,9.41362 -5.3559,18.60389 -6.128,28.25446 -0.18379,6.09414 1.97842,12.23743 5.98564,16.83887 1.77065,3.15645 5.50856,3.92911 8.4963,5.47086 4.83184,2.24261 10.31704,4.10923 15.65915,2.65012 7.40843,-1.98704 13.9996,-6.1976 19.92033,-10.97057 4.35172,-2.52858 9.38803,-3.55826 13.72416,-6.12955 2.78217,-1.50119 5.85846,-3.05865 7.5196,-5.86603 1.34441,-2.81351 2.13874,-5.85237 3.13673,-8.79639 1.55856,-5.27033 1.31454,-10.97193 -0.5485,-16.12959 -2.1836,-6.40211 -6.59334,-12.18525 -12.66647,-15.31781 -7.90306,-4.58867 -16.41046,-8.04809 -24.21822,-12.80936 0.74708,-1.68914 3.3947,0.6806 4.89907,0.67432 10.7053,3.42349 21.30786,8.04959 32.70254,8.42074 5.9147,0.13126 12.11641,-0.93506 17.05999,-4.35495 2.79626,-2.45298 3.8283,-6.1722 5.51562,-9.36041 2.41377,-5.835087 1.13785,-12.450748 -1.38583,-18.021806 -2.45874,-5.64571 -5.6657,-11.093998 -6.57835,-17.277867 -1.94289,-8.514301 -4.10921,-17.431366 -9.81668,-24.29906 -4.79375,-5.462608 -12.36523,-8.352337 -19.5792,-7.295986 -6.41717,0.615083 -12.80727,3.402581 -16.8846,8.526536 -3.97236,4.768735 -6.851,10.309522 -10.16095,15.53124 -1.76556,2.927097 -3.5339,5.85314 -5.37849,8.731391 -0.37745,-2.222869 1.32743,-4.148474 1.6582,-6.299236 2.29722,-6.624649 5.04512,-13.125382 6.68489,-19.954896 0.5087,-4.641895 -0.92329,-9.221489 -2.30211,-13.596304 -2.50908,-6.973798 -6.77969,-13.790695 -13.43354,-17.435082 -5.70712,-3.045513 -12.7116,-3.078911 -18.63046,-0.603976 -6.682572,2.590456 -12.431818,7.486168 -19.65714,8.647289 -6.027317,1.183431 -12.598708,1.519367 -17.679569,5.376788 -2.987073,2.067569 -5.149363,5.142836 -6.294244,8.572736 -2.71936,6.778387 -4.115686,14.687766 -1.131899,21.622407 2.780735,6.777468 7.305031,12.772119 12.644252,17.745233 5.329466,4.76539 11.78668,7.94319 17.799346,11.715901 -1.662022,-0.471455 -5.094721,-2.080175 -7.404701,-3.057287 -6.85862,-2.968131 -13.642872,-6.268618 -20.894482,-8.175324 -7.003685,-1.584415 -14.837705,-1.010721 -20.874213,3.169046 -3.001699,1.780295 -5.641781,4.361978 -6.835001,7.703486 -2.991851,6.305845 -5.247844,13.457205 -3.838415,20.474461 0.985115,2.8239 2.834932,5.29384 3.442898,8.26186 1.905142,6.36129 1.506083,13.09221 2.627927,19.57936 1.178782,4.85707 3.340974,9.61549 6.766253,13.30055 3.793594,3.594 9.13877,5.03982 14.23882,5.34705 5.640719,0.0225 10.977408,-2.20101 16.06084,-4.41936 5.13065,-2.27019 10.24356,-5.15053 13.602494,-9.78237 2.989564,-3.6954 5.723222,-7.60828 9.005156,-11.05914 0.217415,2.0323 -1.478767,3.58132 -1.95994,5.46263 -4.534993,9.91479 -10.172196,19.80982 -19.032423,26.48354 -3.572138,2.69037 -7.837956,4.14375 -11.877232,5.94083 -2.381818,1.17586 -4.110527,3.91387 -3.770421,6.57851 0.260103,1.51866 1.651864,2.24841 3.062863,2.32006 z"
       id="path854"
       inkscape:export-filename="/Users/ksergi/Desktop/four leaf clover.png"
       inkscape:export-xdpi="96"
       inkscape:export-ydpi="96" />
  </g>
</svg>
